<?xml version="1.0" encoding="UTF-8"?>
<svg id="Layer_1" data-name="Layer 1" xmlns="http://www.w3.org/2000/svg" xmlns:xlink="http://www.w3.org/1999/xlink" viewBox="0 0 612 457.59">
  <defs>
    <style>
      .cls-1 {
        fill: none;
      }

      .cls-2 {
        fill: url(#linear-gradient);
      }

      .cls-3 {
        fill: #f15a29;
      }

      .cls-4 {
        fill: #f7941d;
      }

      .cls-5 {
        fill: #fbfcfc;
      }

      .cls-6 {
        fill: #cddc29;
      }

      .cls-7 {
        filter: url(#drop-shadow-1);
      }

      .cls-8 {
        fill: url(#linear-gradient-3);
      }

      .cls-9 {
        fill: url(#linear-gradient-4);
      }

      .cls-10 {
        fill: url(#linear-gradient-2);
      }

      .cls-11 {
        fill: url(#linear-gradient-6);
      }

      .cls-12 {
        fill: url(#linear-gradient-5);
      }
    </style>
    <linearGradient id="linear-gradient" x1="82.97" y1="275.32" x2="298.05" y2="60.25" gradientUnits="userSpaceOnUse">
      <stop offset="0" stop-color="#d7df23"/>
      <stop offset=".02" stop-color="#d7db23"/>
      <stop offset=".25" stop-color="#e0ad25"/>
      <stop offset=".47" stop-color="#e78926"/>
      <stop offset=".67" stop-color="#ec6f28"/>
      <stop offset=".85" stop-color="#ef5f28"/>
      <stop offset="1" stop-color="#f15a29"/>
    </linearGradient>
    <linearGradient id="linear-gradient-2" x1="384.34" y1="270.67" x2="493.52" y2="270.67" gradientUnits="userSpaceOnUse">
      <stop offset="0" stop-color="#3c2d7b"/>
      <stop offset="1" stop-color="#cddc29"/>
    </linearGradient>
    <linearGradient id="linear-gradient-3" x1="415.98" y1="284.45" x2="508.81" y2="284.45" xlink:href="#linear-gradient-2"/>
    <linearGradient id="linear-gradient-4" x1="305.44" y1="358.51" x2="532.26" y2="358.51" xlink:href="#linear-gradient-2"/>
    <linearGradient id="linear-gradient-5" x1="293.64" y1="243.11" x2="483.25" y2="243.11" xlink:href="#linear-gradient-2"/>
    <linearGradient id="linear-gradient-6" x1="333.74" y1="256.89" x2="488.43" y2="256.89" xlink:href="#linear-gradient-2"/>
    <filter id="drop-shadow-1" filterUnits="userSpaceOnUse">
      <feOffset dx="0" dy="1"/>
      <feGaussianBlur result="blur" stdDeviation="6"/>
      <feFlood flood-color="#010101" flood-opacity=".25"/>
      <feComposite in2="blur" operator="in"/>
      <feComposite in="SourceGraphic"/>
    </filter>
  </defs>
  <g>
    <path class="cls-4" d="M285.57,379.6l2.35-14.16h5.59c1.07,0,1.95,.19,2.64,.57,.69,.38,1.18,.92,1.47,1.61,.28,.69,.35,1.51,.2,2.45-.16,.94-.49,1.75-1.01,2.42s-1.19,1.19-2.02,1.55c-.83,.36-1.79,.54-2.87,.54h-3.74l.41-2.41h3.26c.57,0,1.06-.08,1.47-.24,.41-.16,.73-.39,.96-.71,.23-.31,.39-.7,.47-1.17,.07-.47,.04-.87-.09-1.19-.13-.32-.37-.57-.73-.74-.35-.17-.81-.25-1.39-.25h-2.02l-1.95,11.71h-2.99Zm8.71-6.44l2.46,6.44h-3.31l-2.38-6.44h3.23Z"/>
    <path class="cls-4" d="M301.92,379.8c-.67,0-1.26-.12-1.75-.36s-.85-.59-1.08-1.06c-.23-.47-.29-1.05-.17-1.75,.1-.59,.29-1.08,.58-1.48,.28-.4,.63-.72,1.04-.97,.41-.25,.87-.43,1.37-.56,.5-.12,1.01-.21,1.54-.26,.63-.06,1.13-.13,1.52-.19,.39-.06,.68-.15,.87-.26,.19-.11,.31-.28,.35-.51v-.04c.07-.44,0-.78-.23-1.02-.23-.24-.59-.36-1.09-.36s-.97,.12-1.33,.35c-.36,.23-.62,.52-.78,.88l-2.68-.22c.24-.65,.6-1.2,1.09-1.68s1.07-.84,1.76-1.09,1.46-.38,2.31-.38c.58,0,1.14,.07,1.65,.21,.52,.14,.96,.35,1.34,.64,.38,.29,.65,.66,.82,1.12,.17,.45,.2,1,.1,1.63l-1.2,7.16h-2.79l.25-1.47h-.08c-.23,.33-.5,.62-.83,.88-.33,.25-.7,.45-1.13,.59s-.9,.21-1.42,.21Zm1.18-2.03c.43,0,.82-.09,1.19-.26,.36-.17,.66-.41,.9-.7,.24-.29,.39-.63,.45-1l.18-1.13c-.1,.06-.23,.11-.4,.16-.17,.05-.35,.09-.56,.13s-.41,.07-.61,.1c-.2,.03-.38,.06-.55,.09-.35,.05-.67,.13-.95,.24s-.51,.26-.68,.45c-.17,.19-.28,.42-.33,.69-.06,.4,.04,.7,.29,.91,.25,.21,.61,.32,1.06,.32Z"/>
    <path class="cls-4" d="M315.49,379.8c-1.09,0-1.98-.23-2.69-.69-.71-.46-1.2-1.11-1.48-1.93s-.33-1.78-.15-2.85c.17-1.09,.54-2.04,1.1-2.87,.56-.82,1.27-1.47,2.13-1.93,.86-.46,1.83-.7,2.9-.7,.93,0,1.71,.17,2.35,.5,.64,.34,1.11,.81,1.41,1.42s.41,1.32,.31,2.14h-2.78c0-.53-.13-.95-.41-1.28s-.69-.49-1.22-.49c-.46,0-.88,.12-1.26,.37-.38,.25-.71,.6-.98,1.08-.27,.47-.45,1.04-.56,1.71-.11,.68-.11,1.25,0,1.73,.11,.47,.31,.84,.61,1.09s.68,.37,1.13,.37c.34,0,.66-.07,.95-.21,.29-.14,.55-.34,.77-.61,.22-.26,.39-.58,.51-.96h2.78c-.18,.82-.53,1.53-1.02,2.14-.5,.61-1.12,1.09-1.87,1.44s-1.59,.52-2.54,.52Z"/>
    <path class="cls-4" d="M322.67,379.6l1.77-10.62h2.95l-1.77,10.62h-2.95Zm3.54-12c-.44,0-.8-.15-1.08-.44-.28-.29-.4-.64-.35-1.05,.05-.41,.25-.76,.6-1.05,.35-.29,.74-.44,1.17-.44s.79,.15,1.07,.44c.28,.29,.39,.64,.34,1.05-.04,.41-.23,.76-.58,1.05-.35,.29-.74,.44-1.18,.44Z"/>
    <path class="cls-4" d="M331.47,379.8c-.67,0-1.26-.12-1.75-.36s-.85-.59-1.08-1.06c-.23-.47-.29-1.05-.17-1.75,.1-.59,.29-1.08,.58-1.48,.28-.4,.63-.72,1.04-.97,.41-.25,.87-.43,1.37-.56,.5-.12,1.01-.21,1.54-.26,.63-.06,1.13-.13,1.52-.19,.39-.06,.68-.15,.87-.26,.19-.11,.31-.28,.35-.51v-.04c.07-.44,0-.78-.23-1.02-.23-.24-.59-.36-1.09-.36s-.97,.12-1.33,.35c-.36,.23-.62,.52-.78,.88l-2.68-.22c.24-.65,.6-1.2,1.09-1.68s1.07-.84,1.76-1.09,1.46-.38,2.31-.38c.58,0,1.14,.07,1.65,.21,.52,.14,.96,.35,1.34,.64,.38,.29,.65,.66,.82,1.12,.17,.45,.2,1,.1,1.63l-1.2,7.16h-2.79l.25-1.47h-.08c-.23,.33-.5,.62-.83,.88-.33,.25-.7,.45-1.13,.59s-.9,.21-1.42,.21Zm1.18-2.03c.43,0,.82-.09,1.19-.26,.36-.17,.66-.41,.9-.7,.24-.29,.39-.63,.45-1l.18-1.13c-.1,.06-.23,.11-.4,.16-.17,.05-.35,.09-.56,.13s-.41,.07-.61,.1c-.2,.03-.38,.06-.55,.09-.35,.05-.67,.13-.95,.24s-.51,.26-.68,.45c-.17,.19-.28,.42-.33,.69-.06,.4,.04,.7,.29,.91,.25,.21,.61,.32,1.06,.32Z"/>
    <path class="cls-4" d="M345.57,365.43l-2.35,14.16h-2.95l2.35-14.16h2.95Z"/>
    <path class="cls-4" d="M364.2,365.43h2.96l-1.64,9.9c-.15,.91-.48,1.7-.99,2.37-.51,.67-1.15,1.18-1.93,1.54-.78,.36-1.65,.54-2.62,.54-.86,0-1.61-.15-2.26-.45-.65-.3-1.12-.76-1.43-1.38s-.38-1.4-.22-2.34h2.96c-.05,.38-.03,.71,.07,.97s.26,.46,.48,.6c.23,.14,.51,.21,.86,.21,.37,0,.71-.08,1-.25,.29-.16,.53-.4,.72-.71,.19-.31,.33-.69,.4-1.14l1.62-9.85Z"/>
    <path class="cls-4" d="M375.29,375.07l1.02-6.1h2.95l-1.77,10.62h-2.83l.32-1.93h-.11c-.33,.62-.8,1.12-1.43,1.5s-1.34,.57-2.14,.57c-.71,0-1.31-.16-1.79-.48s-.83-.78-1.03-1.38-.24-1.31-.1-2.14l1.13-6.76h2.95l-1.04,6.24c-.1,.63,0,1.12,.26,1.49,.27,.36,.69,.55,1.25,.55,.35,0,.7-.08,1.03-.25,.33-.16,.62-.41,.87-.73,.24-.32,.4-.72,.48-1.2Z"/>
    <path class="cls-4" d="M390.43,372l-2.68,.17c0-.24-.07-.45-.18-.63-.11-.19-.28-.33-.49-.45-.21-.11-.48-.17-.81-.17-.48,0-.92,.11-1.29,.33-.38,.22-.59,.5-.64,.85-.04,.22,.02,.41,.18,.56,.16,.15,.47,.28,.94,.39l1.87,.39c1,.21,1.72,.56,2.16,1.06,.45,.49,.6,1.14,.47,1.94-.12,.68-.41,1.27-.89,1.77s-1.09,.9-1.83,1.18-1.56,.42-2.46,.42c-1.44,0-2.54-.3-3.29-.89-.75-.59-1.11-1.39-1.09-2.4l2.88-.15c.02,.43,.17,.76,.46,.98s.67,.33,1.16,.34c.55,0,1.01-.1,1.4-.34,.39-.24,.6-.53,.65-.87,.04-.24-.03-.43-.21-.58s-.49-.27-.94-.36l-1.77-.37c-1-.21-1.73-.58-2.16-1.12-.44-.53-.59-1.21-.45-2.03,.12-.66,.39-1.23,.83-1.7,.44-.47,1.01-.84,1.7-1.09,.7-.25,1.49-.38,2.38-.38,1.37,0,2.41,.28,3.11,.85,.7,.57,1.03,1.34,1,2.32Z"/>
    <path class="cls-4" d="M399.21,368.98l-.37,2.21h-6.4l.37-2.21h6.4Zm-4.53-2.54h2.95l-1.65,9.9c-.04,.27-.03,.48,.02,.63,.05,.15,.15,.25,.3,.31s.31,.09,.51,.09c.13,0,.27-.01,.42-.04,.14-.03,.25-.05,.33-.05l.11,2.19c-.17,.05-.39,.11-.66,.17-.28,.06-.61,.1-.99,.11-.72,.02-1.33-.07-1.83-.29-.5-.22-.85-.55-1.07-1.01-.22-.46-.26-1.03-.14-1.72l1.7-10.29Z"/>
    <path class="cls-4" d="M399.86,379.6l1.77-10.62h2.95l-1.77,10.62h-2.95Zm3.54-12c-.44,0-.8-.15-1.08-.44-.28-.29-.4-.64-.35-1.05,.05-.41,.25-.76,.6-1.05,.35-.29,.74-.44,1.17-.44s.79,.15,1.07,.44c.28,.29,.39,.64,.34,1.05-.04,.41-.23,.76-.58,1.05-.35,.29-.74,.44-1.18,.44Z"/>
    <path class="cls-4" d="M410.43,379.8c-1.09,0-1.98-.23-2.69-.69-.71-.46-1.2-1.11-1.48-1.93s-.33-1.78-.15-2.85c.17-1.09,.54-2.04,1.1-2.87,.56-.82,1.27-1.47,2.13-1.93,.86-.46,1.83-.7,2.9-.7,.93,0,1.71,.17,2.35,.5,.64,.34,1.11,.81,1.41,1.42s.41,1.32,.31,2.14h-2.78c0-.53-.13-.95-.41-1.28s-.69-.49-1.22-.49c-.46,0-.88,.12-1.26,.37-.38,.25-.71,.6-.98,1.08-.27,.47-.45,1.04-.56,1.71-.11,.68-.11,1.25,0,1.73,.11,.47,.31,.84,.61,1.09s.68,.37,1.13,.37c.34,0,.66-.07,.95-.21,.29-.14,.55-.34,.77-.61,.22-.26,.39-.58,.51-.96h2.78c-.18,.82-.53,1.53-1.02,2.14-.5,.61-1.12,1.09-1.87,1.44s-1.59,.52-2.54,.52Z"/>
    <path class="cls-4" d="M422.42,379.8c-1.09,0-2-.22-2.71-.67-.71-.44-1.21-1.08-1.5-1.89s-.34-1.79-.15-2.91c.18-1.09,.56-2.05,1.12-2.88,.56-.83,1.26-1.47,2.11-1.93,.85-.46,1.79-.69,2.84-.69,.7,0,1.33,.11,1.9,.34s1.04,.56,1.42,1.01c.38,.45,.64,1.01,.78,1.68,.14,.67,.14,1.46-.01,2.36l-.13,.81h-8.97l.29-1.83h6.2c.07-.42,.05-.8-.08-1.13-.13-.33-.33-.58-.62-.77-.29-.19-.65-.28-1.07-.28s-.84,.1-1.22,.31c-.38,.21-.69,.49-.95,.83s-.42,.72-.49,1.11l-.33,1.82c-.09,.55-.07,1.01,.06,1.38s.36,.65,.68,.83c.33,.18,.74,.28,1.25,.28,.33,0,.64-.04,.92-.13s.54-.23,.77-.41c.22-.18,.41-.41,.56-.68l2.69,.18c-.25,.66-.63,1.23-1.13,1.71s-1.12,.86-1.83,1.13-1.51,.4-2.39,.4Z"/>
    <path class="cls-4" d="M439.8,379.6l1.77-10.62h2.95l-1.77,10.62h-2.95Zm3.54-12c-.44,0-.8-.15-1.08-.44-.28-.29-.4-.64-.35-1.05,.05-.41,.25-.76,.6-1.05,.35-.29,.74-.44,1.17-.44s.79,.15,1.07,.44c.28,.29,.39,.64,.34,1.05-.04,.41-.23,.76-.58,1.05-.35,.29-.74,.44-1.18,.44Z"/>
    <path class="cls-4" d="M449.59,373.46l-1.02,6.14h-2.95l1.77-10.62h2.81l-.3,1.87h.12c.33-.62,.81-1.11,1.42-1.47,.62-.36,1.32-.54,2.11-.54,.74,0,1.35,.16,1.85,.48,.49,.32,.84,.78,1.05,1.38,.21,.6,.24,1.31,.1,2.14l-1.13,6.76h-2.95l1.04-6.24c.11-.65,.03-1.16-.24-1.52-.27-.37-.71-.55-1.31-.55-.39,0-.75,.08-1.09,.26s-.61,.42-.83,.74-.38,.72-.45,1.17Z"/>
    <path class="cls-4" d="M470.67,365.43h3.69l2.33,9.52h.17l5.47-9.52h3.69l-2.35,14.16h-2.9l1.53-9.22h-.12l-5.19,9.15h-1.98l-2.13-9.18h-.12l-1.55,9.25h-2.9l2.35-14.16Z"/>
    <path class="cls-4" d="M491.4,379.8c-1.08,0-1.98-.23-2.69-.69-.71-.46-1.21-1.11-1.5-1.94-.29-.83-.34-1.79-.16-2.88,.17-1.09,.54-2.05,1.09-2.86,.55-.82,1.26-1.45,2.11-1.9s1.81-.68,2.88-.68,1.97,.23,2.68,.7c.71,.46,1.21,1.11,1.5,1.94,.29,.83,.35,1.8,.17,2.9-.18,1.08-.55,2.03-1.11,2.85-.56,.82-1.26,1.45-2.11,1.91-.85,.45-1.8,.68-2.87,.68Zm.29-2.28c.5,0,.94-.14,1.32-.43,.38-.28,.7-.67,.96-1.16,.25-.49,.43-1.05,.54-1.67,.1-.61,.1-1.16,.02-1.64-.09-.48-.27-.85-.54-1.13-.28-.28-.66-.41-1.15-.41s-.93,.14-1.32,.43c-.39,.29-.71,.67-.96,1.17-.25,.49-.43,1.05-.53,1.67-.1,.61-.11,1.16-.02,1.63,.08,.48,.27,.85,.55,1.13,.28,.27,.66,.41,1.14,.41Z"/>
    <path class="cls-4" d="M506.46,368.98l-.37,2.21h-6.4l.37-2.21h6.4Zm-4.53-2.54h2.95l-1.65,9.9c-.04,.27-.03,.48,.02,.63,.05,.15,.15,.25,.3,.31s.31,.09,.51,.09c.13,0,.27-.01,.42-.04,.14-.03,.25-.05,.33-.05l.11,2.19c-.17,.05-.39,.11-.66,.17-.28,.06-.61,.1-.99,.11-.72,.02-1.33-.07-1.83-.29-.5-.22-.85-.55-1.07-1.01-.22-.46-.26-1.03-.14-1.72l1.7-10.29Z"/>
    <path class="cls-4" d="M507.11,379.6l1.77-10.62h2.95l-1.77,10.62h-2.95Zm3.54-12c-.44,0-.8-.15-1.08-.44-.28-.29-.4-.64-.35-1.05,.05-.41,.25-.76,.6-1.05,.35-.29,.74-.44,1.17-.44s.79,.15,1.07,.44c.28,.29,.39,.64,.34,1.05-.04,.41-.23,.76-.58,1.05-.35,.29-.74,.44-1.18,.44Z"/>
    <path class="cls-4" d="M517.73,379.8c-1.08,0-1.98-.23-2.69-.69-.71-.46-1.21-1.11-1.5-1.94-.29-.83-.34-1.79-.16-2.88,.17-1.09,.54-2.05,1.09-2.86,.55-.82,1.26-1.45,2.11-1.9s1.81-.68,2.88-.68,1.97,.23,2.68,.7c.71,.46,1.21,1.11,1.5,1.94,.29,.83,.35,1.8,.17,2.9-.18,1.08-.55,2.03-1.11,2.85-.56,.82-1.26,1.45-2.11,1.91-.85,.45-1.8,.68-2.87,.68Zm.29-2.28c.5,0,.94-.14,1.32-.43,.38-.28,.7-.67,.96-1.16,.25-.49,.43-1.05,.54-1.67,.1-.61,.1-1.16,.02-1.64-.09-.48-.27-.85-.54-1.13-.28-.28-.66-.41-1.15-.41s-.93,.14-1.32,.43c-.39,.29-.71,.67-.96,1.17-.25,.49-.43,1.05-.53,1.67-.1,.61-.11,1.16-.02,1.63,.08,.48,.27,.85,.55,1.13,.28,.27,.66,.41,1.14,.41Z"/>
    <path class="cls-4" d="M529.35,373.46l-1.02,6.14h-2.95l1.77-10.62h2.81l-.3,1.87h.12c.33-.62,.81-1.11,1.42-1.47,.62-.36,1.32-.54,2.11-.54,.74,0,1.35,.16,1.85,.48,.49,.32,.84,.78,1.05,1.38,.21,.6,.24,1.31,.1,2.14l-1.13,6.76h-2.95l1.04-6.24c.11-.65,.03-1.16-.24-1.52-.27-.37-.71-.55-1.31-.55-.39,0-.75,.08-1.09,.26s-.61,.42-.83,.74-.38,.72-.45,1.17Z"/>
  </g>
  <path class="cls-2" d="M78.72,264.7l60.21-74c8.75-10.87,11.67-15.65,11.67-23.34,0-11.67-9.02-21.22-22.81-21.22s-23.34,6.63-32.63,14.32l-20.16-30.77s21.22-21.22,58.09-21.22c43.77,0,62.33,23.34,62.33,50.4,0,14.32-6.37,27.59-16.98,40.85l-31.03,38.2h52.52v33.15H78.72v-6.37ZM250.13,123.45c-4.24,0-7.95,.26-11.93,.8l.8-24.67h65.24v-33.16h-100.25l-2.38,80.57,11.06,9.96c.52-.26,9.26-3.49,26.07-3.01,26.52,.76,34.48,8.75,34.48,19.64s-6.89,19.62-26.79,19.62c-10.82,0-20.5-3.5-27.61-7.11-.09-.04-.17-.07-.24-.11-3.28-1.68-11.93-7.63-11.93-7.63l-18.24,28.65c5.7,5.53,11.49,9.68,17.24,12.62,.06,.02,.11,.06,.17,.07,2.2,1.04,4.6,2.05,7.17,3.02,9.36,3.52,21.11,6.29,34.8,6.29,46.41,0,67.1-24.93,67.1-52.78,0-29.97-14.86-52.78-64.71-52.78Z"/>
  <g>
    <path class="cls-3" d="M308.21,134.63l-3.14-2.83c-.17-.16-.17-.42,0-.62l4.95-5.48,3.34-12.49c.08-.32,.48-.49,.73-.27l3.37,3.04c.11,.1,.15,.29,.09,.43l-2.31,7.32,7.05-3.04c.13-.07,.33-.05,.44,.05l3.37,3.04c.25,.22,.11,.64-.19,.75l-12.13,4.55-4.95,5.48c-.17,.19-.44,.22-.61,.06Z"/>
    <path class="cls-3" d="M322.92,148.58l-3.39,1.86c-.23,.12-.49,.06-.6-.14l-5.25-9.59c-.11-.2-.02-.46,.2-.58l16.78-9.18c.2-.11,.49-.06,.6,.14l5.15,9.41c.11,.2,0,.47-.2,.58l-3.39,1.86c-.23,.12-.49,.06-.6-.14l-2.97-5.43-2.59,1.42,2.65,4.84c.11,.2,0,.47-.2,.58l-3.17,1.73c-.23,.12-.49,.06-.6-.14l-2.65-4.84-2.64,1.44,3.07,5.61c.11,.2,0,.47-.2,.58Z"/>
    <path class="cls-3" d="M320.9,152.66l19.9,3.84c.21,.05,.35,.18,.37,.36l.64,4.23c.03,.18-.06,.35-.25,.43l-17.86,9.67c-.29,.17-.64,0-.68-.29l-.68-4.51c-.03-.18,.06-.35,.25-.43l2.75-1.33-.95-6.32-3.02-.46c-.21-.02-.35-.18-.37-.36l-.66-4.36c-.04-.28,.24-.53,.57-.48Zm8.54,10.13l5.85-2.89-6.44-1.04,.59,3.92Z"/>
    <path class="cls-3" d="M322.05,179.24l.43-4.13c.02-.23,.24-.39,.5-.36l19.03,1.98c.23,.02,.44,.23,.41,.46l-.76,7.36c-.4,3.87-3.57,6.37-7.76,5.93-2.45-.25-4.33-1.54-5.32-3.43l-6.94,2.54c-.3,.12-.65-.12-.62-.43l.47-4.56c.02-.15,.12-.3,.27-.36l6.16-2.18,.18-1.77-5.64-.59c-.26-.03-.44-.23-.41-.46Zm10.46,3.78c-.14,1.38,.69,2.27,1.94,2.4,1.25,.13,2.25-.57,2.39-1.95l.23-2.26-4.33-.45-.23,2.26Z"/>
    <path class="cls-3" d="M326.86,194.98c.23,.12,.34,.39,.23,.6l-2.08,3.8c-.1,.18-.34,.26-.55,.17-1.1-.43-2.01,.1-2.51,1-.51,.93-.45,2.07,.5,2.6,1.1,.61,2.1-.44,3.33-1.73,1.88-1.94,4.26-4.43,8.27-2.22,3.46,1.9,4.19,5.27,2.15,9-2,3.64-5.18,4.68-8.61,3.01-.24-.1-.31-.38-.2-.58l2.01-3.66c.09-.16,.3-.25,.51-.16,.95,.35,1.75-.1,2.2-.91,.43-.79,.47-1.74-.36-2.2-.98-.54-1.96,.48-3.21,1.74-1.96,1.96-4.48,4.54-8.5,2.33-3.84-2.11-4.36-5.86-2.35-9.52,2.06-3.75,5.48-5.05,9.17-3.26Z"/>
  </g>
  <g>
    <rect class="cls-1" x="333.74" y="236.22" width="145.02" height="11.05"/>
    <rect class="cls-10" x="384.34" y="263.78" width="109.18" height="13.78"/>
    <rect class="cls-8" x="415.98" y="277.56" width="92.84" height="13.78"/>
    <path class="cls-9" d="M305.44,357.53h225.83c.54,0,.98,.44,.98,.98h0c0,.54-.44,.98-.98,.98h-225.83v-1.96h0Z"/>
    <rect class="cls-12" x="293.64" y="236.22" width="189.6" height="13.78"/>
    <rect class="cls-11" x="333.74" y="250" width="154.69" height="13.78"/>
    <g>
      <path class="cls-5" d="M232.37,257.99v-7.91c0-1.91-1.52-3.62-3.43-3.62s-3.43,1.72-3.43,3.62v27.54c0,1.91,1.52,3.43,3.43,3.43s3.43-1.52,3.43-3.43v-8h9.34v9.05c0,7.53-5.43,12.78-13.91,12.78h-.57c-9.43,0-14.48-6.3-14.48-14.78v-27.92c0-7.53,6.1-12.62,14.58-12.62h.48c10.39,0,14.01,7,14.01,14.53v7.34h-9.43Z"/>
      <path class="cls-5" d="M260.86,291.34l-.76-6.1h-6.38l-.67,6.1h-9.05l8-55.26h11.53l9.72,55.26h-12.39Zm-4.1-29.16h-.1l-2.29,16.2h4.48l-2.1-16.2Z"/>
      <path class="cls-5" d="M304.12,250h-10.67v41.34h-12.96v-41.34h-10.67v-13.93h34.3v13.93Z"/>
      <path class="cls-5" d="M318.41,291.34l-.76-6.1h-6.38l-.67,6.1h-9.05l8-55.26h11.53l9.72,55.26h-12.39Zm-4.1-29.16h-.1l-2.29,16.2h4.48l-2.1-16.2Z"/>
      <path class="cls-5" d="M358.52,291.34h-24.87l.1-55.26h12.29v43.64h12.48v11.62Z"/>
      <path class="cls-5" d="M383.77,236.07l-8,27.63v27.63h-11.53v-27.63l-9.72-27.63h12.39l4.19,15.82h.1l3.53-15.82h9.05Z"/>
      <path class="cls-5" d="M415.5,277.77c0,10-6.77,13.68-15.05,13.68h-1.52c-10.2,0-14.58-6.06-14.58-13.87v-5.24h8.19v4.48c0,3.43,1.72,5.81,5.24,5.81,2.95,0,5.43-2.1,5.43-4.95,0-2.29-1.52-5.15-5.53-7.81-8.58-5.72-12.01-12.77-12.01-20.77,0-6.67,4.76-12.96,13.53-12.96s13.63,5.43,13.63,13.63v5.43h-8.58v-4.48c0-3.05-2.19-4.1-4.1-4.1s-3.72,1.43-3.72,4.1c0,3.33,3.43,6.48,7.15,8.77,9.81,6,11.91,11.15,11.91,18.29Z"/>
      <path class="cls-5" d="M450.28,250h-10.67v41.34h-12.96v-41.34h-10.67v-13.93h34.3v13.93Z"/>
    </g>
    <g>
      <path class="cls-5" d="M261.71,320.6v-7.91c0-1.91-1.52-3.62-3.43-3.62s-3.43,1.72-3.43,3.62v27.54c0,1.91,1.52,3.43,3.43,3.43s3.43-1.52,3.43-3.43v-8h9.34v9.05c0,7.53-5.43,12.67-13.91,12.67h-.57c-9.43,0-14.48-6.19-14.48-14.67v-27.92c0-7.53,6.1-12.67,14.58-12.67h.48c10.39,0,14.01,7.05,14.01,14.57v7.34h-9.43Z"/>
      <path class="cls-5" d="M290.2,353.95l-.76-6.1h-6.38l-.67,6.1h-9.05l8-55.26h11.53l9.72,55.26h-12.39Zm-4.1-29.16h-.09l-2.29,16.2h4.48l-2.1-16.2Z"/>
      <path class="cls-5" d="M330.31,353.95h-24.87l.1-55.26h12.29v43.64h12.48v11.62Z"/>
      <path class="cls-5" d="M333.74,298.69h12.96v55.26h-12.96v-55.26Z"/>
      <path class="cls-5" d="M364.99,321.55h6.77v10.2h-6.67v22.2h-12.77v-55.26h25.25v11.62h-12.58v11.24Z"/>
      <path class="cls-5" d="M379.47,316.03c0-10.39,5.05-17.34,15.44-17.34s14.86,6.95,14.86,17.34v20.58c0,10.39-4.48,17.34-14.86,17.34s-15.44-6.96-15.44-17.34v-20.58Zm12.2,22.77c0,3.14,1.05,4.76,2.95,4.76,2,0,3.05-1.62,3.05-4.76v-24.96c0-3.14-1.05-4.76-3.05-4.76s-2.95,1.62-2.95,4.76v24.96Z"/>
      <path class="cls-5" d="M414.72,298.69h15.91c8.48,0,13.24,6.29,13.24,13.72,0,8-1.81,10.1-5.53,11.62v.19c3.72,1.62,5.81,4.48,5.72,8.29-.29,11.05-.29,12.1-.19,14.29,.09,3.24,1.43,7.15,1.43,7.15h-11.72c-1.14-1.43-1.62-5.15-1.62-7.72l.1-13.34c0-1.71-1.14-2.95-2.86-2.95h-2.29v24.01h-12.2v-55.26Zm13.24,21.82c2.67-.19,4.19-2.1,4.19-4.86v-1.71c0-3.43-1.33-5.05-4.19-5.05h-1.24v11.62h1.24Z"/>
      <path class="cls-5" d="M479.23,353.95h-8.39l-11.53-27.63v27.63h-10.1v-55.26h10.39l9.53,21.15v-21.15h10.1v55.26Z"/>
      <path class="cls-5" d="M484.85,298.69h12.96v55.26h-12.96v-55.26Z"/>
      <path class="cls-5" d="M518.38,353.95l-.76-6.1h-6.38l-.67,6.1h-9.05l8-55.26h11.53l9.72,55.26h-12.39Zm-4.1-29.16h-.09l-2.29,16.2h4.48l-2.1-16.2Z"/>
    </g>
    <g class="cls-7">
      <path class="cls-6" d="M496.68,236.13v17.96l25.07,24.87c-.07,.71,.13,2.34,1.5,3.19,1.37,.85,.43,1.35-.21,1.49l-.75,.53-.43,1.38v2.34l-.11,1.59-.43,.32v.64l.86,.11,.21,.43-.21,.43h-13.5c-.18-1.35-1.18-2.98-2.68-3.72-.11-.05-.54-2.02-2.79-2.66l-4.18-2.44-4.18-2.13h-1.5l-1.07-1.17,.32-.96,.21-.74-.86-1.91-2.89-2.66c-.32-1.59-1.27-1.68-1.61-2.02-.21-.21-1.29-2.52-1.29-3.51,.54-.21,2.04-.77,.75-1.7-1.61-1.17-2.36-4.14-2.36-4.57,0-.34,.93,.07,1.39,.32,.46-.04,1.2-.4,.43-1.59-.42-.65-.63-.95-.72-1.06h-.03c-.03-.06-.04-.1,.03,0h.72c.75-.43-1.27-2.68-2.14-.96-.11,.21,.54,1.06-.21,1.59l-1.18-.64-.75-.74-.54-1.06c.54-.68,.43-1.38-.64-2.34-.69-.61-.64-1.81-1.71-3.4-1.07-1.59,.54-2.87-1.07-4.89-1.29-1.62-1.32-4.14-1.18-5.21,.54,.46,1.63,.94,1.71-.85,.09-1.79,.04-3.36,0-4.25h18Z"/>
    </g>
  </g>
</svg>